<svg id="visual" viewBox="0 0 900 600" width="900" height="600" xmlns="http://www.w3.org/2000/svg" xmlns:xlink="http://www.w3.org/1999/xlink" version="1.1"><path d="M0 451L21.5 446.2C43 441.3 86 431.7 128.8 436C171.7 440.3 214.3 458.7 257.2 475.5C300 492.3 343 507.7 385.8 511.7C428.7 515.7 471.3 508.3 514.2 497.3C557 486.3 600 471.7 642.8 458.5C685.7 445.3 728.3 433.7 771.2 435.3C814 437 857 452 878.5 459.5L900 467L900 601L878.5 601C857 601 814 601 771.2 601C728.3 601 685.7 601 642.8 601C600 601 557 601 514.2 601C471.3 601 428.7 601 385.8 601C343 601 300 601 257.2 601C214.3 601 171.7 601 128.8 601C86 601 43 601 21.5 601L0 601Z" fill="#FFD750" stroke-linecap="round" stroke-linejoin="miter"></path></svg>