<svg id="visual" viewBox="0 0 900 600" width="900" height="600" xmlns="http://www.w3.org/2000/svg" xmlns:xlink="http://www.w3.org/1999/xlink" version="1.1"><path d="M0 191L21.5 180.3C43 169.7 86 148.3 128.8 149.7C171.7 151 214.3 175 257.2 183.2C300 191.3 343 183.7 385.8 166.2C428.7 148.7 471.3 121.3 514.2 114.7C557 108 600 122 642.8 122.7C685.7 123.3 728.3 110.7 771.2 121.8C814 133 857 168 878.5 185.5L900 203L900 0L878.5 0C857 0 814 0 771.2 0C728.3 0 685.7 0 642.8 0C600 0 557 0 514.2 0C471.3 0 428.7 0 385.8 0C343 0 300 0 257.2 0C214.3 0 171.7 0 128.8 0C86 0 43 0 21.5 0L0 0Z" fill="#0066FF" stroke-linecap="round" stroke-linejoin="miter"></path></svg>