<svg id="visual" viewBox="0 0 900 200" width="900" height="200" xmlns="http://www.w3.org/2000/svg" xmlns:xlink="http://www.w3.org/1999/xlink" version="1.1"><path d="M0 100L21.5 96.8C43 93.7 86 87.3 128.8 90.3C171.7 93.3 214.3 105.7 257.2 117C300 128.3 343 138.7 385.8 141.2C428.7 143.7 471.3 138.3 514.2 130.8C557 123.3 600 113.7 642.8 105C685.7 96.3 728.3 88.7 771.2 89.8C814 91 857 101 878.5 106L900 111L900 201L878.5 201C857 201 814 201 771.2 201C728.3 201 685.7 201 642.8 201C600 201 557 201 514.2 201C471.3 201 428.7 201 385.8 201C343 201 300 201 257.2 201C214.3 201 171.7 201 128.8 201C86 201 43 201 21.5 201L0 201Z" fill="#F5E3CD" stroke-linecap="round" stroke-linejoin="miter"></path></svg>